<svg viewBox="373.0754 134.6274 441.9181 192.9424" width="5000" height="2183.010833907912" xmlns="http://www.w3.org/2000/svg" xmlns:xlink="http://www.w3.org/1999/xlink" preserveAspectRatio="none"><defs></defs><style>.aa2hkKu8QmxHfillColor {fill:#000000;fill-opacity:1;}.aa2hkKu8QmxHstrokeColor-str {stroke:#313131;stroke-opacity:1;}.aaj736v8XX0filter-floo {flood-color:#000000;flood-opacity:0.5;}.abyaObmL6Kcolors-0 {fill:#C4A619;fill-opacity:1;}.aD6z1nYkhcolor {fill:#FFFFFF;fill-opacity:1;}.agvhJAgikYfillColor {fill:#C4A619;fill-opacity:1;}.aIQxosvfow0filter-floo {flood-color:#C4A619;flood-opacity:1;}.aLMEoAiYOq0filter-floo {flood-color:#C4A619;flood-opacity:1;}.amOZgTL-fxfillColor {fill:#C4A619;fill-opacity:1;}.aNSOB4kJpNcolors-0 {fill:#C4A619;fill-opacity:1;}.aQhWtnY1PdafillColor {fill:#000000;fill-opacity:1;}.aQhWtnY1PdastrokeColor-str {stroke:#313131;stroke-opacity:1;}.aqNaUXkcgd0filter-floo {flood-color:#000000;flood-opacity:0.5;}.aRnUUihQ170filter-floo {flood-color:#C4A619;flood-opacity:0.5;}.aSg3jhVUmc0filter-floo {flood-color:#C4A619;flood-opacity:0.5;}.aUkiClBgBXDcolors-0 {fill:#000000;fill-opacity:1;}.aUkiClBgBXDcolors-1 {fill:#FF4949;fill-opacity:1;}.aUkiClBgBXDcolors-2 {fill:#FFAE78;fill-opacity:1;}.aUkiClBgBXDcolors-3 {fill:#FF834F;fill-opacity:1;}.aUkiClBgBXDcolors-4 {fill:#FF4949;fill-opacity:1;}.aUkiClBgBXDcolors-5 {fill:#FFAE78;fill-opacity:1;}.aUkiClBgBXDcolors-6 {fill:#FF834F;fill-opacity:1;}.aUkiClBgBXDcolors-7 {fill:#FF4949;fill-opacity:1;}.icon2 {fill:#FF4949;fill-opacity:1;}.icon3 {fill:#FFAE78;fill-opacity:1;}.icon3-str {stroke:#FFAE78;stroke-opacity:1;}.icon4 {fill:#FF834F;fill-opacity:1;}.icon5 {fill:#FF4949;fill-opacity:1;}.icon6 {fill:#FFAE78;fill-opacity:1;}.icon7 {fill:#FF834F;fill-opacity:1;}.icon8 {fill:#FF4949;fill-opacity:1;}.shapeStroke-str {stroke:#313131;stroke-opacity:1;}</style><defs>
      <filter
        x="543.0334"
        y="171.5698"
        width="271.9601"
        height="119.0747"
        id="RnUUihQ17"
        filterUnits="userSpaceOnUse"
        primitiveUnits="userSpaceOnUse"
        color-interpolation-filters="sRGB">
        
    <feGaussianBlur in="SourceGraphic" stdDeviation="5"/>
    <feOffset dx="4" dy="4" result="vj1dUYjGI1x"/>
    <feFlood flood-color="#C4A619" flood-opacity="0.5" in="vj1dUYjGI1x" />
    <feComposite  in2="vj1dUYjGI1x" operator="in" result="RkpSXYIwhdf"/><feMerge result="EiMHtAEmB6X"><feMergeNode in="RkpSXYIwhdf" /><feMergeNode in="SourceGraphic" /></feMerge>
      </filter>
      <filter
        x="500.2337"
        y="143.5698"
        width="82"
        height="184"
        id="IQxosvfow"
        filterUnits="userSpaceOnUse"
        primitiveUnits="userSpaceOnUse"
        color-interpolation-filters="sRGB">
        
    <feGaussianBlur in="SourceGraphic" stdDeviation="8"/>
    <feOffset dx="0" dy="0" result="a9mxVRJUjT70"/>
    <feFlood flood-color="#C4A619" flood-opacity="1" in="a9mxVRJUjT70" />
    <feComposite  in2="a9mxVRJUjT70" operator="in" result="vkWZMdWghLy"/><feMerge result="a4sTLn2Y-gHV"><feMergeNode in="vkWZMdWghLy" /><feMergeNode in="SourceGraphic" /></feMerge><feGaussianBlur  result="-51qSB7jNVE" stdDeviation="5" />
      </filter>
      <filter
        x="508.0775"
        y="264.5698"
        width="65.0543"
        height="60.8712"
        id="Sg3jhVUmc"
        filterUnits="userSpaceOnUse"
        primitiveUnits="userSpaceOnUse"
        color-interpolation-filters="sRGB">
        <feGaussianBlur  result="IGpoSK-SAzX" stdDeviation="8" />
      </filter>
      <filter
        x="448.8704"
        y="134.6274"
        width="180.7265"
        height="180.7266"
        id="qNaUXkcgd"
        filterUnits="userSpaceOnUse"
        primitiveUnits="userSpaceOnUse"
        color-interpolation-filters="sRGB">
        
    <feGaussianBlur in="SourceGraphic" stdDeviation="5"/>
    <feOffset dx="-2" dy="4" result="WAWp4P3iY1R"/>
    <feFlood flood-color="#000000" flood-opacity="0.5" in="WAWp4P3iY1R" />
    <feComposite  in2="WAWp4P3iY1R" operator="in" result="fkfLvpyAik4"/><feMerge result="wKfz2MJQuTB"><feMergeNode in="fkfLvpyAik4" /><feMergeNode in="SourceGraphic" /></feMerge>
      </filter>
      <filter
        x="373.0754"
        y="165.5698"
        width="168.5336"
        height="119.0747"
        id="LMEoAiYOq"
        filterUnits="userSpaceOnUse"
        primitiveUnits="userSpaceOnUse"
        color-interpolation-filters="sRGB">
        
    <feGaussianBlur in="SourceGraphic" stdDeviation="5"/>
    <feOffset dx="0" dy="-2" result="a3BOilF93lj0"/>
    <feFlood flood-color="#C4A619" flood-opacity="1" in="a3BOilF93lj0" />
    <feComposite  in2="a3BOilF93lj0" operator="in" result="TNvJfmmh7Ci"/><feMerge result="sETFdgNMRj-"><feMergeNode in="TNvJfmmh7Ci" /><feMergeNode in="SourceGraphic" /></feMerge>
      </filter>
      <filter
        x="388.0754"
        y="182.5698"
        width="138.5336"
        height="89.0747"
        id="Lsh8uCHmsn"
        filterUnits="userSpaceOnUse"
        primitiveUnits="userSpaceOnUse"
        color-interpolation-filters="sRGB">
        <feMerge><feMergeNode in="SourceGraphic" /></feMerge>
      </filter>
      <filter
        x="533.3356"
        y="153.9907"
        width="15.7962"
        height="100"
        id="aj736v8XX"
        filterUnits="userSpaceOnUse"
        primitiveUnits="userSpaceOnUse"
        color-interpolation-filters="sRGB">
        <feMerge><feMergeNode in="SourceGraphic" /></feMerge>
      </filter></defs><g filter="url(#RnUUihQ17)"><g opacity="1" transform="rotate(0 554.0334 182.5698)">
<svg width="241.9601" height="89.0747" x="554.0334" y="182.5698" version="1.1" preserveAspectRatio="none" viewBox="3.32 -28 77.36 28.48">
  <g transform="matrix(1 0 0 1 0 0)" class="aD6z1nYkhcolor"><path id="id-D6z1nYkh3" d="M23.88-14.56Q26.28-13.80 27.64-12.02Q29-10.24 29-7.64L29-7.64Q29-3.96 26.14-1.98Q23.28 0 17.80 0L17.80 0L3.32 0L3.32-28L17-28Q22.12-28 24.86-26.04Q27.60-24.08 27.60-20.72L27.60-20.72Q27.60-18.68 26.62-17.08Q25.64-15.48 23.88-14.56L23.88-14.56ZM16.20-23.12L9.76-23.12L9.76-16.52L16.20-16.52Q18.60-16.52 19.84-17.36Q21.08-18.20 21.08-19.84L21.08-19.84Q21.08-21.48 19.84-22.30Q18.60-23.12 16.20-23.12L16.20-23.12ZM17.32-4.88Q19.88-4.88 21.18-5.72Q22.48-6.56 22.48-8.32L22.48-8.32Q22.48-11.80 17.32-11.80L17.32-11.80L9.76-11.80L9.76-4.88L17.32-4.88Z M46.36 0.48Q40.36 0.48 37.02-2.84Q33.68-6.16 33.68-12.32L33.68-12.32L33.68-28L40.16-28L40.16-12.56Q40.16-5.04 46.40-5.04L46.40-5.04Q49.44-5.04 51.04-6.86Q52.64-8.68 52.64-12.56L52.64-12.56L52.64-28L59.04-28L59.04-12.32Q59.04-6.16 55.70-2.84Q52.36 0.48 46.36 0.48L46.36 0.48Z M70.60 0.48Q67.76 0.48 65.38-0.58Q63.00-1.64 61.48-3.60L61.48-3.60L65.08-7.92Q67.36-4.84 70.28-4.84L70.28-4.84Q74.24-4.84 74.24-9.48L74.24-9.48L74.24-22.80L64.40-22.80L64.40-28L80.68-28L80.68-9.84Q80.68-4.68 78.12-2.10Q75.56 0.48 70.60 0.48L70.60 0.48Z"/></g>
</svg>
</g></g><g filter="url(#qNaUXkcgd)"><g opacity="1" transform="rotate(-44.8 465.8704 220.7277)">
<svg width="106.5805" height="106.5803" x="465.8704" y="220.7277" version="1.1" preserveAspectRatio="none" viewBox="6.253365516662598 6.25 87.49663543701172 87.49663543701172">
  <g transform="matrix(1 0 0 1 0 0)" class="aNSOB4kJpNcolors-0"><path d="m93.75 6.25-5.4062 18.234c-0.29688 1.0156-1 1.8594-1.9688 2.3281-3.1562 1.5156-10.641 5.2188-15.234 8.3438l-6.2969-6.2969c3.125-4.5938 6.8281-12.078 8.3438-15.234 0.46875-0.96875 1.3125-1.6719 2.3281-1.9688z"></path><path d="m63.73 42.82-6.5469-6.5469c-0.64844-0.64844-0.73438-1.6641-0.21094-2.4141l2.1953-3.1328c0.67188-0.95703 2.0469-1.0781 2.875-0.25l7.4844 7.4844c0.82812 0.82812 0.70703 2.2031-0.25 2.875l-3.1328 2.1953c-0.75 0.52344-1.7656 0.4375-2.4141-0.21094z"></path><path d="m29.098 75.684 31.793-31.277-5.2969-5.2969-31.277 31.793z"></path><path d="m14.648 80.727-7.4766 7.6016c-1.2344 1.2344-1.2188 3.25 0.015625 4.4844s3.25 1.25 4.4844 0.015625l7.6016-7.4766z"></path><path d="m21.609 72.609 5.7812 5.7812c0.60938 0.60938 0.49609 1.7148 0 2.2109l-3.1172 3.1172c-0.60938 0.60938-1.5977 0.60938-2.2109 0l-5.7812-5.7812c-0.60938-0.60938-0.49609-1.7148 0-2.2109l3.1172-3.1172c0.60937-0.60938 1.5977-0.60938 2.2109 0z"></path></g>
</svg>
</g></g><g filter="url(#LMEoAiYOq)"><g opacity="1" transform="rotate(0 388.0754 182.5698)">
<svg width="138.5336" height="89.0747" x="388.0754" y="182.5698" version="1.1" preserveAspectRatio="none" viewBox="1.0019904375076294 18.487913131713867 97.99907684326172 63.011741638183594">
  <g transform="matrix(-1 0 0 1 100.00305771827698 0)" class="aUkiClBgBXDcolors-0"><path d="m17.238 58.898c-0.38281-0.57422-0.71484-1.1836-0.98438-1.8164l-2.0117-1.5195c-0.30078-0.29688-0.58984-0.61328-0.85547-0.9375-0.019531-0.027344-0.042969-0.058594-0.066407-0.085938-1.2148 1.043-2.4219 2.0508-3.0117 2.3633-0.61719 0.32812-1.2773 0.61328-1.9375 0.85547-1.1406 0.41406-2.8047 0.67578-3.5391 1.7109s-0.79297 2.4297-1.4453 3.5195c-0.41406 0.69141-1.0234 1.2305-1.5352 1.8516-2.0898 3.4375 0.22656 5.5039 1.1016 6.7188l4.8164-4.9609c1.0898-0.97266 1.1953-1.8945 1.2734-3.2617 0.91406 0.050781 1.8555-0.007813 2.7695-0.050782 2.2422-0.10156 5.8672-0.34766 9.3594-1.2969l-1.2148-0.60547c-1.0586-0.52734-1.9727-1.3633-2.7188-2.4844z"></path><path d="m67.742 67.172c0.085937-0.17578 0.32031-0.55469 0.48047-0.85938-0.20703-0.16406-0.41016-0.32812-0.60938-0.49609-0.91016-0.75391-1.6875-1.5195-2.3672-2.3242-0.55078-0.66406-1.0938-1.3438-1.6094-2.0234-0.17969-0.24219-0.34766-0.48438-0.51172-0.71875-0.55469-0.80469-1.0742-1.5625-1.7656-1.8125-0.32812-0.11719-0.68359-0.17969-1.0898-0.17969-1.2891 0-2.7539 0.60938-4.0117 1.207l-0.054687 0.023437-0.058594 0.019531c-0.085937 0.03125-0.16797 0.0625-0.25391 0.097657-0.019531 0.41797-0.027344 0.73047-0.019531 0.85938 0.14844 1.9258 0.49219 3.6367 1.3164 5.4023 0.26562 0.55859 0.55859 1.1016 0.87891 1.6289 0.32031 0.52734 0.67188 1.0352 1.0508 1.5273 1.2422 1.6133 2.5195 2.2227 1.6484 4.6055-0.50781 1.3867-2.0391 2.9766-3.332 3.6562-1.6055-0.011718-2.8438-0.10156-4.0664 1.1055-0.76953 0.75781-1.0391 1.5781-1.2852 2.6055h8.3906c0.30859-0.1875 0.58594-0.40234 0.85547-0.64062 0.73828-0.65625 6.4375-6.1523 6.6211-6.6797 0.0625-0.1875-0.042969-0.50391-0.10156-0.6875-0.50391-1.5977-0.92969-3.125-0.60938-4.8242 0.097657-0.50391 0.28125-1.0273 0.50391-1.4922z"></path><path d="m98.699 56.066c-0.23047-0.56641-1.1367-1.9531-1.0898-2.4883 0.003906-0.011719 0.003906-0.023437 0.003906-0.035156 0.070313-0.85938 0.67188-1.5078 0.63672-2.4375-0.058594-1.3828-1.3789-2.4297-1.4922-3.7891-0.0625-0.72266 0.15625-2.1875 0.15625-2.1875-1.4922 0.67969-0.91406 2.5898-1.4219 3.1523 0 0-0.24219-0.74609-0.27734-1.0781-0.26562-2.5391 1.6758-3.5977 1.6602-4.1992-0.60938 0.67969-2.293 1.1484-3.2266 2.1914-0.85156 0.95313-0.98047 2.4844-1.5898 3.1367 0.14062-0.36328-0.023438-0.92578 0.03125-1.3359 0.085937-0.59766 0.74219-1.7891 0.53906-2.3242-0.097656 0.42969-0.73047 0.97266-0.97266 1.3867-0.18359 0.30859-0.26953 0.64453-0.35547 0.98828-0.60156 2.4258 0.55078 4.375 2.4961 5.793 1.1055 0.80469 2.2852 1.3203 3.0195 2.5469 0.50781 0.84375 0.72266 1.8984 0.46875 2.8633-0.22656 0.85547-0.88672 1.5469-1.6367 1.9844-1.25 0.73047-3.3242 0.6875-4.6875 0.32422-0.93359-0.25-1.7695-0.83984-2.5195-1.4297-2.0078-1.5703-3.2695-3.5469-4.2852-5.8438-0.38672-0.875-0.73047-1.7695-1.207-2.6016-1.6367-2.8398-4.4844-4.2148-7.5625-4.9922-0.61328-0.15625-1.2617-0.18359-1.8672-0.35156-0.74609-0.20312-1.3164-0.84375-1.9336-1.2891-0.96094-0.69141-2.1289-1.2031-3.2852-1.4414-0.99219-0.20703-2.0234-0.21484-3.0352-0.21094-1.5078 0.003906-2.9766 0.097656-4.4727 0.26953-3.1133 0.36719-6.3633 1.0352-9.4883 0.48438-0.78906-0.14062-1.6914-0.28516-2.3945-0.67578-0.48828-0.27344-0.87891-0.67578-1.2383-1.0977-1.2695-1.4961-3.5117-2.3047-3.5117-2.3047 2.3008-0.33984 3.6797-1.4102 5.5156-2.6562-0.96094 0.36719-2.0391 0.67578-3.0742 0.48828-1.8867-0.33984-2.6641-1.8438-3.6641-3.2773-0.89844-1.2891-2.0352-2.3867-3.6211-2.6758 2.1094-0.68359 3.1484-1.4062 4.7656-2.8945-4.6172 0.6875-8.8281-2.1953-10.605-3.8398 1.8164 0.50391 3.6055 0.80469 5.2305 1.8281-0.40234-0.63281-0.96484-1.2148-1.5234-1.707-1.9961-1.7617-3.8164-1.9922-6.2812-2.6016 1.0078-0.12109 1.9688-0.32812 2.9492-0.58594-0.64844-0.12891-1.3125-0.22656-1.9492-0.40625-2.4453-0.70312-3.5312-1.4766-6.1875-1.0078-0.69922 0.125-1.3828 0.27344-2.043 0.54688-0.86719 0.35938-1.6367 0.90234-2.4883 1.293 1.5234-1.4922 3.2734-2.3164 5.3398-2.75-1.0469-0.027344-2.0742-0.33594-3.1055-0.33984-0.67578 0-1.3516 0.12891-2.0078 0.29297-2.1992 0.54297-3.2695 1.5195-4.8359 3.082 0.47266-1.2578 1.3633-2.1797 2.3008-3.1016-1.0859 0.35156-2.1641 0.8125-3.0547 1.543-1.3516 1.1133-1.6445 2.3867-1.8086 4.0508-1.0977 0.97656-2.5234 1.6562-3.7305 2.4922 0.15625 0.36328 0.25781 0.75 0.36719 1.1328-1.1172 0.92188-5.1172 2.582-5.6758 3.3516-0.10547 0.14453-0.11719 0.30469-0.085937 0.47266 0.10547 0.50781 0.46875 0.94531 0.89453 1.2188 0.4375-0.45703 0.8125-0.75 1.3945-1.0117-0.43359 0.51953-1.0039 1.1172-1.0195 1.8281-0.019531 0.84375 0.73828 1.7969 1.2891 2.3789 0.074219 0.28516-0.097656 0.51953-0.17187 0.78906-0.14453 0.51172 0.1875 1.4648 0.43359 1.9102 0.58984 1.0586 1.6992 1.6602 2.832 1.9727-0.1875-0.57031-0.37109-1.1445-0.54687-1.7188 0.63672 0.32422 1.2656 0.65234 1.9531 0.85156-0.17969-0.46484-0.43359-0.98047-0.46484-1.4805-0.019531-0.36328 0.14062-0.69922 0.38672-0.96094 0.48437-0.51953 1.332-0.82422 2.0391-0.84375 0.47266-0.015625 0.91797 0.12109 1.2617 0.45703 0.34766 0.33594 0.51172 0.80469 0.50781 1.2812-0.015625 2.0391-1.9805 3.9219-3.6172 4.8555-0.47656 0.27344-1.5156 0.69531-1.8555 1.0273 0.035156 0.089844 2.7656 0.027344 3.5312-0.30469-0.20312 0.26953-0.37891 0.55469-0.55078 0.84375-1.1367 1.9492-1.1523 3.8672-0.58984 6 0.14062 0.35547 0.29297 0.70312 0.46875 1.043s0.36719 0.66797 0.57422 0.98828c0.21094 0.32031 0.43359 0.625 0.67578 0.92187 0.23828 0.29688 0.49609 0.57422 0.76953 0.84375 0.039063-2.0156 0.30859-4.2109 1.6602-5.8125-0.64063 3.207-0.35938 6.5586 1.4922 9.3359 0.57422 0.85938 1.3203 1.6094 2.2539 2.0742-0.089843-2.7383 0.75391-3.2891 0.75391-3.2891 0.16016 2.1367 0.52344 2.9375 0.97656 3.9102 1.0742 2.3398 4.6641 3.4727 5.4062 3.668-0.24219-0.4375-0.55078-0.83594-0.80859-1.2656-0.61719-1.0234-0.87109-2.1758-0.98438-3.3555 0.16016 0.32031 0.28125 0.66406 0.43359 0.99219 0.82422 1.8281 2.3359 2.9766 4.1719 3.6797-0.125-0.65234-0.13672-1.3242-0.16016-1.9883 0.82812 0.57812 1.5117 1.1875 2.0156 2.0703 0.55469 0.97266 0.97266 2.0195 1.4922 3.0078 1.1758 2.2266 3.2773 5.1562 2.5391 7.8008-0.58984 2.1055-2.4414 1.6719-3.9805 2.5547-1.3633 0.77734-1.793 1.9766-2.1836 3.4141h9.4844c0.5-0.82813 0.85156-1.8594 1.2734-2.7344 0.36328-0.75 2.1602-3.9648 2.1562-4.3438-0.011719-0.88672-0.24609-1.7969-0.37109-2.6758-0.40234-2.9414-0.54688-5.6875 0.36719-8.5664 2.9141-0.0625 7.2227-1.8242 9.9219-3.0391 0.91406-0.41016 1.7969-0.92969 2.7383-1.2695 1.7656-0.83594 4.0703-1.7812 6.0273-1.0742 1.3164 0.47656 2.0273 1.8672 2.8203 2.9336 0.51172 0.67188 1.0352 1.3281 1.5742 1.9805 0.67969 0.80469 1.4141 1.5117 2.2266 2.1797 0.76953 0.64453 1.5742 1.2461 2.4141 1.7969 0.21094 0.13672 3.6719 2.0586 4.4297 2.3945 0.82812 0.35938 1.6758 0.67188 2.5391 0.93359 1.2422 0.38281 2.7461 0.58594 3.7812 1.4141 1.3086 1.0508 2.0156 2.7461 2.1836 4.3789 0.058594 0.54297 0.089844 1.5508-0.27344 1.9922-0.61328-0.011719-1.2578-0.058594-1.8633 0.003906-1.4648 0.14844-2.4531 1.1484-2.9062 2.4961-0.10938 0.32812-0.42578 1.1953-0.4375 1.207h8.2148c0.51953-0.25 2.6328-3.6914 2.9727-4.3672-0.10938-0.87891-0.51953-1.8164-0.80469-2.6602-0.30859-0.92188-0.57031-1.8789-0.75391-2.832-0.13672-0.69141-0.16406-2.5312-0.48047-2.9844-0.38672-0.55859-1.3789-0.86719-1.9453-1.25-2.1562-1.4414-4.2539-3.7031-5.3359-6.0938-0.65625-1.4453-0.59375-2.7188-0.64062-4.2656-0.066406-2.2383-0.78906-4.4453-2.1602-6.2227-0.13281-0.17188-0.375-0.42188-0.34766-0.63672 0.058594-0.019531 0.98047 0.24219 1.2734 0.38672 3.0977 1.5039 3.793 4.9492 5.8984 7.4492 1.9688 2.3359 4.8008 4.4727 7.9336 4.7305 1.793 0.14844 3.6484-0.27734 5.0352-1.4648 1.5234-1.2852 2.3906-3.2852 1.5938-5.2227z"></path></g>
</svg>
</g></g><g opacity="1" transform="rotate(0 388.0754 182.5698)">
<svg width="138.5336" height="89.0747" x="388.0754" y="182.5698" version="1.1" preserveAspectRatio="none" viewBox="1.0019904375076294 18.487913131713867 97.99907684326172 63.011741638183594">
  <g transform="matrix(-1 0 0 1 100.00305771827698 0)" class="aUkiClBgBXDcolors-0"><path d="m17.238 58.898c-0.38281-0.57422-0.71484-1.1836-0.98438-1.8164l-2.0117-1.5195c-0.30078-0.29688-0.58984-0.61328-0.85547-0.9375-0.019531-0.027344-0.042969-0.058594-0.066407-0.085938-1.2148 1.043-2.4219 2.0508-3.0117 2.3633-0.61719 0.32812-1.2773 0.61328-1.9375 0.85547-1.1406 0.41406-2.8047 0.67578-3.5391 1.7109s-0.79297 2.4297-1.4453 3.5195c-0.41406 0.69141-1.0234 1.2305-1.5352 1.8516-2.0898 3.4375 0.22656 5.5039 1.1016 6.7188l4.8164-4.9609c1.0898-0.97266 1.1953-1.8945 1.2734-3.2617 0.91406 0.050781 1.8555-0.007813 2.7695-0.050782 2.2422-0.10156 5.8672-0.34766 9.3594-1.2969l-1.2148-0.60547c-1.0586-0.52734-1.9727-1.3633-2.7188-2.4844z"></path><path d="m67.742 67.172c0.085937-0.17578 0.32031-0.55469 0.48047-0.85938-0.20703-0.16406-0.41016-0.32812-0.60938-0.49609-0.91016-0.75391-1.6875-1.5195-2.3672-2.3242-0.55078-0.66406-1.0938-1.3438-1.6094-2.0234-0.17969-0.24219-0.34766-0.48438-0.51172-0.71875-0.55469-0.80469-1.0742-1.5625-1.7656-1.8125-0.32812-0.11719-0.68359-0.17969-1.0898-0.17969-1.2891 0-2.7539 0.60938-4.0117 1.207l-0.054687 0.023437-0.058594 0.019531c-0.085937 0.03125-0.16797 0.0625-0.25391 0.097657-0.019531 0.41797-0.027344 0.73047-0.019531 0.85938 0.14844 1.9258 0.49219 3.6367 1.3164 5.4023 0.26562 0.55859 0.55859 1.1016 0.87891 1.6289 0.32031 0.52734 0.67188 1.0352 1.0508 1.5273 1.2422 1.6133 2.5195 2.2227 1.6484 4.6055-0.50781 1.3867-2.0391 2.9766-3.332 3.6562-1.6055-0.011718-2.8438-0.10156-4.0664 1.1055-0.76953 0.75781-1.0391 1.5781-1.2852 2.6055h8.3906c0.30859-0.1875 0.58594-0.40234 0.85547-0.64062 0.73828-0.65625 6.4375-6.1523 6.6211-6.6797 0.0625-0.1875-0.042969-0.50391-0.10156-0.6875-0.50391-1.5977-0.92969-3.125-0.60938-4.8242 0.097657-0.50391 0.28125-1.0273 0.50391-1.4922z"></path><path d="m98.699 56.066c-0.23047-0.56641-1.1367-1.9531-1.0898-2.4883 0.003906-0.011719 0.003906-0.023437 0.003906-0.035156 0.070313-0.85938 0.67188-1.5078 0.63672-2.4375-0.058594-1.3828-1.3789-2.4297-1.4922-3.7891-0.0625-0.72266 0.15625-2.1875 0.15625-2.1875-1.4922 0.67969-0.91406 2.5898-1.4219 3.1523 0 0-0.24219-0.74609-0.27734-1.0781-0.26562-2.5391 1.6758-3.5977 1.6602-4.1992-0.60938 0.67969-2.293 1.1484-3.2266 2.1914-0.85156 0.95313-0.98047 2.4844-1.5898 3.1367 0.14062-0.36328-0.023438-0.92578 0.03125-1.3359 0.085937-0.59766 0.74219-1.7891 0.53906-2.3242-0.097656 0.42969-0.73047 0.97266-0.97266 1.3867-0.18359 0.30859-0.26953 0.64453-0.35547 0.98828-0.60156 2.4258 0.55078 4.375 2.4961 5.793 1.1055 0.80469 2.2852 1.3203 3.0195 2.5469 0.50781 0.84375 0.72266 1.8984 0.46875 2.8633-0.22656 0.85547-0.88672 1.5469-1.6367 1.9844-1.25 0.73047-3.3242 0.6875-4.6875 0.32422-0.93359-0.25-1.7695-0.83984-2.5195-1.4297-2.0078-1.5703-3.2695-3.5469-4.2852-5.8438-0.38672-0.875-0.73047-1.7695-1.207-2.6016-1.6367-2.8398-4.4844-4.2148-7.5625-4.9922-0.61328-0.15625-1.2617-0.18359-1.8672-0.35156-0.74609-0.20312-1.3164-0.84375-1.9336-1.2891-0.96094-0.69141-2.1289-1.2031-3.2852-1.4414-0.99219-0.20703-2.0234-0.21484-3.0352-0.21094-1.5078 0.003906-2.9766 0.097656-4.4727 0.26953-3.1133 0.36719-6.3633 1.0352-9.4883 0.48438-0.78906-0.14062-1.6914-0.28516-2.3945-0.67578-0.48828-0.27344-0.87891-0.67578-1.2383-1.0977-1.2695-1.4961-3.5117-2.3047-3.5117-2.3047 2.3008-0.33984 3.6797-1.4102 5.5156-2.6562-0.96094 0.36719-2.0391 0.67578-3.0742 0.48828-1.8867-0.33984-2.6641-1.8438-3.6641-3.2773-0.89844-1.2891-2.0352-2.3867-3.6211-2.6758 2.1094-0.68359 3.1484-1.4062 4.7656-2.8945-4.6172 0.6875-8.8281-2.1953-10.605-3.8398 1.8164 0.50391 3.6055 0.80469 5.2305 1.8281-0.40234-0.63281-0.96484-1.2148-1.5234-1.707-1.9961-1.7617-3.8164-1.9922-6.2812-2.6016 1.0078-0.12109 1.9688-0.32812 2.9492-0.58594-0.64844-0.12891-1.3125-0.22656-1.9492-0.40625-2.4453-0.70312-3.5312-1.4766-6.1875-1.0078-0.69922 0.125-1.3828 0.27344-2.043 0.54688-0.86719 0.35938-1.6367 0.90234-2.4883 1.293 1.5234-1.4922 3.2734-2.3164 5.3398-2.75-1.0469-0.027344-2.0742-0.33594-3.1055-0.33984-0.67578 0-1.3516 0.12891-2.0078 0.29297-2.1992 0.54297-3.2695 1.5195-4.8359 3.082 0.47266-1.2578 1.3633-2.1797 2.3008-3.1016-1.0859 0.35156-2.1641 0.8125-3.0547 1.543-1.3516 1.1133-1.6445 2.3867-1.8086 4.0508-1.0977 0.97656-2.5234 1.6562-3.7305 2.4922 0.15625 0.36328 0.25781 0.75 0.36719 1.1328-1.1172 0.92188-5.1172 2.582-5.6758 3.3516-0.10547 0.14453-0.11719 0.30469-0.085937 0.47266 0.10547 0.50781 0.46875 0.94531 0.89453 1.2188 0.4375-0.45703 0.8125-0.75 1.3945-1.0117-0.43359 0.51953-1.0039 1.1172-1.0195 1.8281-0.019531 0.84375 0.73828 1.7969 1.2891 2.3789 0.074219 0.28516-0.097656 0.51953-0.17187 0.78906-0.14453 0.51172 0.1875 1.4648 0.43359 1.9102 0.58984 1.0586 1.6992 1.6602 2.832 1.9727-0.1875-0.57031-0.37109-1.1445-0.54687-1.7188 0.63672 0.32422 1.2656 0.65234 1.9531 0.85156-0.17969-0.46484-0.43359-0.98047-0.46484-1.4805-0.019531-0.36328 0.14062-0.69922 0.38672-0.96094 0.48437-0.51953 1.332-0.82422 2.0391-0.84375 0.47266-0.015625 0.91797 0.12109 1.2617 0.45703 0.34766 0.33594 0.51172 0.80469 0.50781 1.2812-0.015625 2.0391-1.9805 3.9219-3.6172 4.8555-0.47656 0.27344-1.5156 0.69531-1.8555 1.0273 0.035156 0.089844 2.7656 0.027344 3.5312-0.30469-0.20312 0.26953-0.37891 0.55469-0.55078 0.84375-1.1367 1.9492-1.1523 3.8672-0.58984 6 0.14062 0.35547 0.29297 0.70312 0.46875 1.043s0.36719 0.66797 0.57422 0.98828c0.21094 0.32031 0.43359 0.625 0.67578 0.92187 0.23828 0.29688 0.49609 0.57422 0.76953 0.84375 0.039063-2.0156 0.30859-4.2109 1.6602-5.8125-0.64063 3.207-0.35938 6.5586 1.4922 9.3359 0.57422 0.85938 1.3203 1.6094 2.2539 2.0742-0.089843-2.7383 0.75391-3.2891 0.75391-3.2891 0.16016 2.1367 0.52344 2.9375 0.97656 3.9102 1.0742 2.3398 4.6641 3.4727 5.4062 3.668-0.24219-0.4375-0.55078-0.83594-0.80859-1.2656-0.61719-1.0234-0.87109-2.1758-0.98438-3.3555 0.16016 0.32031 0.28125 0.66406 0.43359 0.99219 0.82422 1.8281 2.3359 2.9766 4.1719 3.6797-0.125-0.65234-0.13672-1.3242-0.16016-1.9883 0.82812 0.57812 1.5117 1.1875 2.0156 2.0703 0.55469 0.97266 0.97266 2.0195 1.4922 3.0078 1.1758 2.2266 3.2773 5.1562 2.5391 7.8008-0.58984 2.1055-2.4414 1.6719-3.9805 2.5547-1.3633 0.77734-1.793 1.9766-2.1836 3.4141h9.4844c0.5-0.82813 0.85156-1.8594 1.2734-2.7344 0.36328-0.75 2.1602-3.9648 2.1562-4.3438-0.011719-0.88672-0.24609-1.7969-0.37109-2.6758-0.40234-2.9414-0.54688-5.6875 0.36719-8.5664 2.9141-0.0625 7.2227-1.8242 9.9219-3.0391 0.91406-0.41016 1.7969-0.92969 2.7383-1.2695 1.7656-0.83594 4.0703-1.7812 6.0273-1.0742 1.3164 0.47656 2.0273 1.8672 2.8203 2.9336 0.51172 0.67188 1.0352 1.3281 1.5742 1.9805 0.67969 0.80469 1.4141 1.5117 2.2266 2.1797 0.76953 0.64453 1.5742 1.2461 2.4141 1.7969 0.21094 0.13672 3.6719 2.0586 4.4297 2.3945 0.82812 0.35938 1.6758 0.67188 2.5391 0.93359 1.2422 0.38281 2.7461 0.58594 3.7812 1.4141 1.3086 1.0508 2.0156 2.7461 2.1836 4.3789 0.058594 0.54297 0.089844 1.5508-0.27344 1.9922-0.61328-0.011719-1.2578-0.058594-1.8633 0.003906-1.4648 0.14844-2.4531 1.1484-2.9062 2.4961-0.10938 0.32812-0.42578 1.1953-0.4375 1.207h8.2148c0.51953-0.25 2.6328-3.6914 2.9727-4.3672-0.10938-0.87891-0.51953-1.8164-0.80469-2.6602-0.30859-0.92188-0.57031-1.8789-0.75391-2.832-0.13672-0.69141-0.16406-2.5312-0.48047-2.9844-0.38672-0.55859-1.3789-0.86719-1.9453-1.25-2.1562-1.4414-4.2539-3.7031-5.3359-6.0938-0.65625-1.4453-0.59375-2.7188-0.64062-4.2656-0.066406-2.2383-0.78906-4.4453-2.1602-6.2227-0.13281-0.17188-0.375-0.42188-0.34766-0.63672 0.058594-0.019531 0.98047 0.24219 1.2734 0.38672 3.0977 1.5039 3.793 4.9492 5.8984 7.4492 1.9688 2.3359 4.8008 4.4727 7.9336 4.7305 1.793 0.14844 3.6484-0.27734 5.0352-1.4648 1.5234-1.2852 2.3906-3.2852 1.5938-5.2227z"></path></g>
</svg>
</g><g filter="url(#aj736v8XX)"><g opacity="1" transform="rotate(0 533.3356 153.9907)">
<svg width="15.7962" height="100" x="533.3356" y="153.9907" version="1.1" preserveAspectRatio="none" viewBox="45.09809875488281 3.250800132751465 14.769500732421877 93.50048065185548">
  <g transform="matrix(1 0 0 1 0 0)" class="abyaObmL6Kcolors-0"><path d="m55.809 26.141 4.0586-8.1172-7.3867-14.773-7.3828 14.77 4.0586 8.1172v0.003906c-0.51562 0.47266-0.80859 1.1406-0.80859 1.8398v9.625c0 0.96094 0.55078 1.8398 1.418 2.2578v54.168c0 0.72266 0.28516 1.4141 0.79688 1.9219 0.50781 0.51172 1.1992 0.79688 1.918 0.79688 1.5039 0 2.7188-1.2148 2.7188-2.7148v-54.172c0.86719-0.41797 1.418-1.2969 1.418-2.2578v-9.625c0-0.69922-0.29297-1.3672-0.80859-1.8398z"></path></g>
</svg>
</g></g><g opacity="1" transform="rotate(0 537.2337 182.5698)">
<svg width="8" height="100" x="537.2337" y="182.5698" version="1.1" preserveAspectRatio="none" viewBox="0 0 8 100">
  <defs><rect x="0" y="0" width="8" height="100" rx="0px" ry="0px" id="id-gvhJAgikY"></rect></defs><use class="agvhJAgikYfillColor shapeStroke-str" style="stroke-width:0;" xlink:href="#id-gvhJAgikY"></use>
</svg>
</g><g filter="url(#IQxosvfow)"><g opacity="1" transform="rotate(0 539.2337 182.5698)">
<svg width="4" height="106" x="539.2337" y="182.5698" version="1.1" preserveAspectRatio="none" viewBox="0 0 4 106">
  <defs><rect x="0" y="0" width="4" height="106" rx="0px" ry="0px" id="id-a2hkKu8QmxH"></rect></defs><use class="aa2hkKu8QmxHfillColor aa2hkKu8QmxHstrokeColor-str" style="stroke-width:0;" xlink:href="#id-a2hkKu8QmxH"></use>
</svg>
</g></g><g opacity="1" transform="rotate(0 532.7066 288.5698)">
<svg width="17.0543" height="12.8712" x="532.7066" y="288.5698" version="1.1" preserveAspectRatio="none" viewBox="20.5 40 159 120">
  <defs><g transform="matrix(1 0 0 1 0 0)" id="id-mOZgTL-fx"><g><path d="M146.603 40H53.397L20.5 81.644 100 160l79.5-78.356L146.603 40z"></path></g></g></defs><use class="amOZgTL-fxfillColor shapeStroke-str" style="stroke-width:0;" xlink:href="#id-mOZgTL-fx"></use>
</svg>
</g><g filter="url(#Sg3jhVUmc)"><g opacity="1" transform="rotate(0 532.0775 288.5698)">
<svg width="17.0543" height="12.8712" x="532.0775" y="288.5698" version="1.1" preserveAspectRatio="none" viewBox="20.5 40 159 120">
  <defs><g transform="matrix(1 0 0 1 0 0)" id="id-QhWtnY1Pda"><g><path d="M146.603 40H53.397L20.5 81.644 100 160l79.5-78.356L146.603 40z"></path></g></g></defs><use class="aQhWtnY1PdafillColor aQhWtnY1PdastrokeColor-str" style="stroke-width:0;" xlink:href="#id-QhWtnY1Pda"></use>
</svg>
</g></g></svg>